<?xml version="1.0" standalone="no"?><!DOCTYPE svg PUBLIC "-//W3C//DTD SVG 1.1//EN" "http://www.w3.org/Graphics/SVG/1.1/DTD/svg11.dtd"><svg t="1733912147907" class="icon" viewBox="0 0 1024 1024" version="1.1" xmlns="http://www.w3.org/2000/svg" p-id="6318" xmlns:xlink="http://www.w3.org/1999/xlink" width="200" height="200"><path d="M523.946667 1024c-139.946667 0-271.36-54.613333-370.346667-153.6S0 640 0 498.346667c0-116.053333 37.546667-223.573333 107.52-314.026667 34.133333-42.666667 73.386667-81.92 119.466667-112.64C273.066667 40.96 322.56 17.066667 377.173333 1.706667c10.24-3.413333 20.48 0 27.306667 8.533333s8.533333 18.773333 3.413333 27.306667C373.76 102.4 358.4 162.133333 358.4 230.4 358.4 471.04 552.96 665.6 793.6 665.6c68.266667 0 128-15.36 192.853333-47.786667 8.533333-5.12 20.48-3.413333 27.306667 3.413334s11.946667 17.066667 8.533333 27.306666c-15.36 52.906667-39.253333 104.106667-71.68 150.186667-30.72 46.08-68.266667 85.333333-112.64 119.466667-88.746667 68.266667-197.973333 105.813333-314.026666 105.813333z m-187.733334-954.026667C163.84 143.36 51.2 310.613333 51.2 498.346667 51.2 759.466667 262.826667 972.8 523.946667 972.8c189.44 0 354.986667-112.64 430.08-285.013333-52.906667 18.773333-105.813333 29.013333-160.426667 29.013333-129.706667 0-252.586667-51.2-343.04-141.653333S307.2 360.106667 307.2 230.4c0-54.613333 10.24-107.52 29.013333-160.426667z" fill="#040000" p-id="6319"></path></svg>