<?xml version="1.0" standalone="no"?><!DOCTYPE svg PUBLIC "-//W3C//DTD SVG 1.1//EN" "http://www.w3.org/Graphics/SVG/1.1/DTD/svg11.dtd"><svg t="1735483976208" class="icon" viewBox="0 0 1024 1024" version="1.1" xmlns="http://www.w3.org/2000/svg" p-id="4346" data-darkreader-inline-fill="" xmlns:xlink="http://www.w3.org/1999/xlink" width="200" height="200"><path d="M751.881481 602.074074c17.066667 0 31.288889 14.222222 31.288889 31.288889S768.948148 663.703704 751.881481 663.703704h-606.814814c-17.066667 0-31.288889-14.222222-31.288889-31.288889s14.222222-31.288889 31.288889-31.288889h606.814814m0-55.940741h-606.814814c-48.355556 0-88.177778 39.822222-88.177778 88.177778 0 48.355556 39.822222 88.177778 88.177778 88.177778h606.814814c48.355556 0 88.177778-39.822222 88.177778-88.177778 0-49.303704-39.822222-88.177778-88.177778-88.177778zM890.311111 402.014815H724.385185c-16.118519 0-28.444444-12.325926-28.444444-28.444445s12.325926-28.444444 28.444444-28.444444h165.925926c11.377778 0 19.911111-8.533333 19.911111-19.911111 0-11.377778-8.533333-19.911111-19.911111-19.911111H724.385185c-16.118519 0-28.444444-12.325926-28.444444-28.444445s12.325926-28.444444 28.444444-28.444444h165.925926c42.666667 0 76.8 34.133333 76.8 76.8s-34.133333 76.8-76.8 76.8z" fill="#0097FF" p-id="4347" data-darkreader-inline-fill="" style="--darkreader-inline-fill: #0079cc;"></path><path d="M880.82963 305.303704H725.333333c-40.77037 0-73.955556-34.133333-73.955555-76.8s33.185185-76.8 73.955555-76.8h54.992593c16.118519 0 28.444444 12.325926 28.444444 28.444444s-12.325926 28.444444-28.444444 28.444445h-54.992593c-9.481481 0-17.066667 9.481481-17.066666 19.911111s7.585185 19.911111 17.066666 19.911111H881.777778c16.118519 0 28.444444 12.325926 28.444444 28.444444s-13.274074 28.444444-29.392592 28.444445zM602.074074 450.37037c-16.118519 0-28.444444-12.325926-28.444444-28.444444 0-42.666667 34.133333-76.8 76.8-76.8h165.925926c16.118519 0 28.444444 12.325926 28.444444 28.444444s-12.325926 28.444444-28.444444 28.444445H650.42963c-10.42963 0-19.911111 9.481481-19.911111 19.911111 0 15.17037-12.325926 28.444444-28.444445 28.444444z" fill="#0097FF" p-id="4348" data-darkreader-inline-fill="" style="--darkreader-inline-fill: #0079cc;"></path><path d="M168.77037 849.540741V485.451852c0-5.688889 3.792593-9.481481 9.481482-9.481482h540.444444c5.688889 0 9.481481 3.792593 9.481482 9.481482v364.088889c0 5.688889-3.792593 9.481481-9.481482 9.481481h-540.444444c-4.740741 0-9.481481-3.792593-9.481482-9.481481z" fill="#FFFFFF" p-id="4349" data-darkreader-inline-fill="" style="--darkreader-inline-fill: #181a1b;"></path><path d="M699.733333 504.414815v326.162963h-502.518518V504.414815h502.518518m0-56.888889h-540.444444c-10.42963 0-18.962963 8.533333-18.962963 18.962963v402.014815c0 10.42963 8.533333 18.962963 18.962963 18.962963h578.37037c10.42963 0 18.962963-8.533333 18.962963-18.962963V504.414815c0-31.288889-25.6-56.888889-56.888889-56.888889z" fill="#0097FF" p-id="4350" data-darkreader-inline-fill="" style="--darkreader-inline-fill: #0079cc;"></path><path d="M590.696296 177.303704L94.814815 463.644444c-10.42963 5.688889-23.703704 2.844444-30.340741-7.585185-5.688889-10.42963-2.844444-23.703704 7.585185-30.34074l495.881482-286.340741c10.42963-5.688889 23.703704-2.844444 30.34074 7.585185 5.688889 10.42963 2.844444 23.703704-7.585185 30.340741z" fill="#FFFFFF" p-id="4351" data-darkreader-inline-fill="" style="--darkreader-inline-fill: #181a1b;"></path><path d="M579.318519 136.533333c-3.792593 0-7.585185 0.948148-11.377778 2.844445L73.007407 424.77037c-10.42963 5.688889-14.222222 19.911111-7.585185 30.340741 3.792593 6.637037 11.377778 11.377778 18.962963 11.377778 3.792593 0 7.585185-0.948148 11.377778-2.844445l495.881481-286.34074c10.42963-5.688889 14.222222-19.911111 7.585186-30.340741-4.740741-6.637037-12.325926-10.42963-19.911111-10.42963z" fill="#0097FF" p-id="4352" data-darkreader-inline-fill="" style="--darkreader-inline-fill: #0079cc;"></path><path d="M298.666667 212.385185c11.377778 0 21.807407 5.688889 27.496296 15.170371 8.533333 15.17037 3.792593 34.133333-11.377778 42.666666-4.740741 2.844444-10.42963 3.792593-15.17037 3.792593-11.377778 0-21.807407-5.688889-27.496296-15.170371-3.792593-7.585185-5.688889-15.17037-2.844445-23.703703 1.896296-7.585185 7.585185-15.17037 14.222222-18.962963 3.792593-1.896296 9.481481-3.792593 15.170371-3.792593m0-56.888889c-15.17037 0-30.340741 3.792593-43.614815 11.377778-41.718519 24.651852-56.888889 77.748148-32.237037 120.414815 16.118519 28.444444 45.511111 43.614815 76.8 43.614815 15.17037 0 30.340741-3.792593 43.614815-11.377778 41.718519-24.651852 56.888889-77.748148 32.237037-120.414815-17.066667-27.496296-46.459259-43.614815-76.8-43.614815z" fill="#0097FF" p-id="4353" data-darkreader-inline-fill="" style="--darkreader-inline-fill: #0079cc;"></path></svg>